<svg width="198" height="199" viewBox="0 0 198 199" fill="none" xmlns="http://www.w3.org/2000/svg">
<g filter="url(#filter0_d_17_3)">
<mask id="mask0_17_3" style="mask-type:luminance" maskUnits="userSpaceOnUse" x="4" y="3" width="190" height="85">
<path d="M4 3C4 25.411 14.009 46.904 31.825 62.751C49.64 78.597 73.805 87.5 99 87.5C124.196 87.5 148.359 78.597 166.175 62.751C183.991 46.904 194 25.411 194 3H4Z" fill="white"/>
</mask>
<g mask="url(#mask0_17_3)">
<path d="M4 3C4 25.411 14.009 46.904 31.825 62.751C49.64 78.597 73.805 87.5 99 87.5C124.196 87.5 148.359 78.597 166.175 62.751C183.991 46.904 194 25.411 194 3H4Z" fill="#F1F4E9"/>
</g>
<mask id="mask1_17_3" style="mask-type:luminance" maskUnits="userSpaceOnUse" x="81" y="16" width="113" height="178">
<path d="M193.5 16.5C163.663 16.5 135.048 25.824 113.95 42.421C92.853 59.018 81 81.528 81 105C81 128.472 92.853 150.982 113.95 167.579C135.048 184.176 163.663 193.5 193.5 193.5V16.5Z" fill="white"/>
</mask>
<g mask="url(#mask1_17_3)">
<path d="M193.5 16.5C163.663 16.5 135.048 25.824 113.95 42.421C92.853 59.018 81 81.528 81 105C81 128.472 92.853 150.982 113.95 167.579C135.048 184.176 163.663 193.5 193.5 193.5V16.5Z" fill="#F1F4E9"/>
</g>
</g>
<defs>
<filter id="filter0_d_17_3" x="0" y="0" width="198" height="198.5" filterUnits="userSpaceOnUse" color-interpolation-filters="sRGB">
<feFlood flood-opacity="0" result="BackgroundImageFix"/>
<feColorMatrix in="SourceAlpha" type="matrix" values="0 0 0 0 0 0 0 0 0 0 0 0 0 0 0 0 0 0 127 0" result="hardAlpha"/>
<feOffset dy="1"/>
<feGaussianBlur stdDeviation="2"/>
<feComposite in2="hardAlpha" operator="out"/>
<feColorMatrix type="matrix" values="0 0 0 0 0 0 0 0 0 0 0 0 0 0 0 0 0 0 0.25 0"/>
<feBlend mode="normal" in2="BackgroundImageFix" result="effect1_dropShadow_17_3"/>
<feBlend mode="normal" in="SourceGraphic" in2="effect1_dropShadow_17_3" result="shape"/>
</filter>
</defs>
</svg>
