<svg width="306" height="280" fill="none" xmlns="http://www.w3.org/2000/svg"><g filter="url(#a)"><mask id="b" fill="#fff"><path d="M4 84.5c0 22.411 10.009 43.904 27.825 59.751C49.64 160.097 73.805 169 99 169c25.196 0 49.359-8.903 67.175-24.749C183.991 128.404 194 106.911 194 84.5H4z"/></mask><path d="M4 84.5c0 22.411 10.009 43.904 27.825 59.751C49.64 160.097 73.805 169 99 169c25.196 0 49.359-8.903 67.175-24.749C183.991 128.404 194 106.911 194 84.5H4z" fill="#F1F4E9" mask="url(#b)"/><mask id="c" fill="#fff"><path d="M193.5 98c-29.837 0-58.452 9.324-79.55 25.921C92.853 140.518 81 163.028 81 186.5s11.853 45.982 32.95 62.579C135.048 265.676 163.663 275 193.5 275V98z"/></mask><path d="M193.5 98c-29.837 0-58.452 9.324-79.55 25.921C92.853 140.518 81 163.028 81 186.5s11.853 45.982 32.95 62.579C135.048 265.676 163.663 275 193.5 275V98z" fill="#F1F4E9" mask="url(#c)"/></g><defs><filter id="a" x="0" y="81.5" width="198" height="198.5" filterUnits="userSpaceOnUse" color-interpolation-filters="sRGB"><feFlood flood-opacity="0" result="BackgroundImageFix"/><feColorMatrix in="SourceAlpha" values="0 0 0 0 0 0 0 0 0 0 0 0 0 0 0 0 0 0 127 0" result="hardAlpha"/><feOffset dy="1"/><feGaussianBlur stdDeviation="2"/><feComposite in2="hardAlpha" operator="out"/><feColorMatrix values="0 0 0 0 0 0 0 0 0 0 0 0 0 0 0 0 0 0 0.25 0"/><feBlend in2="BackgroundImageFix" result="effect1_dropShadow_6_2"/><feBlend in="SourceGraphic" in2="effect1_dropShadow_6_2" result="shape"/></filter></defs></svg>